# xmcd
#
# Track frame offsets: 
#        150
#        12369
#        28910
#        39096
#        53797
#        64669
#        74487
#        88170
#        105814
#        115572
#        126471
#        137281
#        150006
#
# Disc length: 2148 seconds
#
# Revision: 0
# Processed by: cddbd v1.5.2PL0 Copyright (c) Steve Scherf et al.
# Submitted via: ExactAudioCopyFreeDBPlugin 1.0
#
DISCID=9a08620d
DTITLE=Country Sisters - The Best of 45
DYEAR=2018
DGENRE=Country
TTITLE0=Texas When IDie
TTITLE1=Blanket On The Ground
TTITLE2=That'll Be The Day
TTITLE3=Detriot City
TTITLE4=Diggi Liggi Lo
TTITLE5=Silver Eagle
TTITLE6=Love Someone Like Me
TTITLE7=Lord Don't Forsake Me
TTITLE8=Zámavám
TTITLE9=One Way Track
TTITLE10=You Can Make Me Happy
TTITLE11=I Wanna Believe
TTITLE12=Dare To Go Bare
EXTD=
EXTT0=
EXTT1=
EXTT2=
EXTT3=
EXTT4=
EXTT5=
EXTT6=
EXTT7=
EXTT8=
EXTT9=
EXTT10=
EXTT11=
EXTT12=
PLAYORDER=
